<?xml version="1.0" encoding="UTF-8"?>
<svg width="100" height="100" viewBox="0 0 100 100" xmlns="http://www.w3.org/2000/svg">
    <defs>
        <!-- Modern gradient for cart body -->
        <linearGradient id="cartBody" x1="0%" y1="0%" x2="100%" y2="100%">
            <stop offset="0%" style="stop-color:#2d3436;stop-opacity:1" />
            <stop offset="100%" style="stop-color:#636e72;stop-opacity:1" />
        </linearGradient>
        
        <!-- Metallic gradient for wheels -->
        <linearGradient id="wheelGradient" x1="0%" y1="0%" x2="100%" y2="100%">
            <stop offset="0%" style="stop-color:#2d3436;stop-opacity:1" />
            <stop offset="50%" style="stop-color:#636e72;stop-opacity:1" />
            <stop offset="100%" style="stop-color:#2d3436;stop-opacity:1" />
        </linearGradient>
        
        <!-- Shine effect -->
        <linearGradient id="shine" x1="0%" y1="0%" x2="100%" y2="100%">
            <stop offset="0%" style="stop-color:#ffffff;stop-opacity:0.7" />
            <stop offset="100%" style="stop-color:#ffffff;stop-opacity:0" />
        </linearGradient>

        <!-- Modern shadow -->
        <filter id="modernShadow" x="-20%" y="-20%" width="140%" height="140%">
            <feGaussianBlur in="SourceAlpha" stdDeviation="3"/>
            <feOffset dx="2" dy="4"/>
            <feComponentTransfer>
                <feFuncA type="linear" slope="0.5"/>
            </feComponentTransfer>
            <feMerge>
                <feMergeNode/>
                <feMergeNode in="SourceGraphic"/>
            </feMerge>
        </filter>
    </defs>

    <!-- Main cart body - more rounded and modern -->
    <path d="M90 35c0-2.8-2.2-5-5-5H70l-5-12c-0.4-1-1.4-1.6-2.4-1.6H37.4c-1 0-2 0.6-2.4 1.6l-5 12H15c-2.8 0-5 2.2-5 5l8 45c0.5 2.3 2.5 4 4.8 4h54.4c2.3 0 4.3-1.7 4.8-4l8-45z"
          fill="url(#cartBody)"
          filter="url(#modernShadow)"/>

    <!-- Modern handle -->
    <path d="M37 20c0-7 6-13 13-13s13 6 13 13"
          fill="none"
          stroke="#636e72"
          stroke-width="4"
          stroke-linecap="round"/>

    <!-- Wheels with metallic effect -->
    <g>
        <!-- Left wheel -->
        <circle cx="35" cy="85" r="8" fill="url(#wheelGradient)"/>
        <circle cx="35" cy="85" r="4" fill="#2d3436"/>
        <circle cx="35" cy="85" r="2" fill="#b2bec3"/>
        
        <!-- Right wheel -->
        <circle cx="65" cy="85" r="8" fill="url(#wheelGradient)"/>
        <circle cx="65" cy="85" r="4" fill="#2d3436"/>
        <circle cx="65" cy="85" r="2" fill="#b2bec3"/>
    </g>

    <!-- Shine overlay -->
    <path d="M90 35H70l-5-15H35l-5 15H15l10 45h50z"
          fill="url(#shine)"
          opacity="0.4"/>

    <!-- Modern basket pattern -->
    <g stroke="#ffffff" stroke-width="1.5" opacity="0.3">
        <path d="M30 45 L70 45" />
        <path d="M28 55 L72 55" />
        <path d="M26 65 L74 65" />
    </g>

    <!-- Additional modern details -->
    <path d="M25 35h50" stroke="#ffffff" stroke-width="1.5" opacity="0.4"/>
    <circle cx="35" cy="85" r="1" fill="#ffffff" opacity="0.8"/>
    <circle cx="65" cy="85" r="1" fill="#ffffff" opacity="0.8"/>
</svg> 